<svg xmlns="http://www.w3.org/2000/svg" width="30" height="30" fill="none"><path fill="#CAFF33" d="M26.053 21.431a14.95 14.95 0 0 1-1.478 2.658c-.778 1.109-1.414 1.876-1.905 2.302-.76.7-1.575 1.058-2.448 1.078-.626 0-1.381-.178-2.26-.54-.883-.36-1.694-.538-2.435-.538-.777 0-1.611.178-2.503.538-.893.362-1.613.55-2.163.569-.837.035-1.67-.333-2.503-1.107-.531-.463-1.196-1.258-1.992-2.383-.854-1.202-1.556-2.596-2.106-4.184-.59-1.717-.885-3.378-.885-4.987 0-1.843.398-3.433 1.196-4.765A7.015 7.015 0 0 1 7.076 7.54a6.738 6.738 0 0 1 3.386-.956c.664 0 1.536.206 2.619.61 1.08.405 1.773.61 2.077.61.227 0 .998-.24 2.304-.719 1.234-.444 2.277-.628 3.13-.556 2.314.187 4.052 1.099 5.208 2.742-2.069 1.254-3.092 3.01-3.072 5.263.019 1.754.655 3.215 1.906 4.374.567.538 1.2.954 1.905 1.25-.153.442-.314.867-.486 1.274ZM20.747.551c0 1.375-.503 2.659-1.504 3.847-1.209 1.413-2.67 2.23-4.256 2.101a4.282 4.282 0 0 1-.032-.521c0-1.32.575-2.733 1.596-3.889.51-.585 1.158-1.071 1.943-1.459C19.28.248 20.02.036 20.718 0c.02.184.029.368.029.55Z"/></svg>