<svg xmlns="http://www.w3.org/2000/svg" width="30" height="30" fill="none"><g fill="#CAFF33" clip-path="url(#a)"><path d="M29.708 15.346c0-1.02-.082-2.045-.259-3.048H15.301v5.776h8.102a6.943 6.943 0 0 1-2.998 4.558v3.748h4.833c2.839-2.613 4.47-6.47 4.47-11.034Z"/><path d="M15.299 30.001c4.046 0 7.457-1.328 9.943-3.621l-4.834-3.748c-1.345.915-3.08 1.433-5.104 1.433-3.913 0-7.23-2.64-8.421-6.19H1.895v3.864a15.002 15.002 0 0 0 13.404 8.262Z"/><path d="M6.879 17.875a8.985 8.985 0 0 1 0-5.743V8.27H1.896a15.013 15.013 0 0 0 0 13.47l4.983-3.864Z"/><path d="M15.299 5.937a8.151 8.151 0 0 1 5.754 2.249l4.283-4.283A14.416 14.416 0 0 0 15.299.001 14.997 14.997 0 0 0 1.895 8.269l4.982 3.863c1.185-3.555 4.509-6.195 8.422-6.195Z"/></g><defs><clipPath id="a"><path fill="#fff" d="M0 0h30v30H0z"/></clipPath></defs></svg>