<svg width="30" height="30" viewBox="0 0 30 30" fill="none" xmlns="http://www.w3.org/2000/svg">
<g id="Icon" clip-path="url(#clip0_67_207)">
<path id="Vector" d="M29.7083 15.3456C29.7083 14.3259 29.6256 13.3007 29.4493 12.2976H15.3008V18.0738H23.4029C23.0667 19.9368 21.9864 21.5848 20.4046 22.632V26.3799H25.2383C28.0768 23.7674 29.7083 19.9092 29.7083 15.3456Z" fill="#CAFF33"/>
<path id="Vector_2" d="M15.2989 30.0012C19.3445 30.0012 22.7562 28.6728 25.242 26.38L20.4082 22.6321C19.0634 23.547 17.3272 24.0651 15.3044 24.0651C11.3911 24.0651 8.07311 21.425 6.88259 17.8755H1.89453V21.7392C4.44092 26.8044 9.6274 30.0012 15.2989 30.0012Z" fill="#CAFF33"/>
<path id="Vector_3" d="M6.87895 17.8754C6.25063 16.0124 6.25063 13.9952 6.87895 12.1322V8.26855H1.89641C-0.231095 12.507 -0.231095 17.5006 1.89641 21.7391L6.87895 17.8754Z" fill="#CAFF33"/>
<path id="Vector_4" d="M15.2989 5.93708C17.4374 5.90401 19.5043 6.70871 21.0531 8.18583L25.3356 3.90327C22.6239 1.35688 19.0248 -0.0430825 15.2989 0.00101083C9.6274 0.00101083 4.44092 3.19778 1.89453 8.26851L6.87708 12.1322C8.06209 8.57716 11.3856 5.93708 15.2989 5.93708Z" fill="#CAFF33"/>
</g>
<defs>
<clipPath id="clip0_67_207">
<rect width="30" height="30" fill="white"/>
</clipPath>
</defs>
</svg>
