<svg xmlns="http://www.w3.org/2000/svg" width="60" height="60" fill="none"><path fill="url(#a)" stroke="#CAFF33" d="m6.777 28.588-.001.003C5.594 32.084 5 35.46 5 38.716v9.108a2.5 2.5 0 0 0 2.5 2.5h11.269a2.5 2.5 0 0 0 2.5-2.5v-9.221c-.035-4.154.627-7.937 1.979-11.355a58.83 58.83 0 0 1 4.17-8.382c.696-1.157.392-2.68-.749-3.44l-6.026-4.016c-.916-.61-2.145-.56-2.978.199-2.171 1.98-4.155 4.317-5.954 7.009a43.68 43.68 0 0 0-4.934 9.97Zm26.88 0-.001.003c-1.182 3.493-1.776 6.869-1.776 10.125v9.108a2.5 2.5 0 0 0 2.5 2.5h11.268a2.5 2.5 0 0 0 2.5-2.5v-9.221c-.035-4.154.628-7.937 1.98-11.354a58.836 58.836 0 0 1 4.17-8.383c.695-1.157.391-2.68-.75-3.44l-6.026-4.016c-.915-.61-2.145-.56-2.978.199-2.17 1.98-4.155 4.317-5.953 7.009a43.684 43.684 0 0 0-4.935 9.97Z"/><defs><linearGradient id="a" x1="30.206" x2="30.206" y1="11" y2="49.824" gradientUnits="userSpaceOnUse"><stop stop-color="#CAFF33"/><stop offset="1" stop-color="#191919"/></linearGradient></defs></svg>