<svg xmlns="http://www.w3.org/2000/svg" width="30" height="30" fill="none"><g fill="#CAFF33"><path d="M15 9.375A2.813 2.813 0 1 0 15 15a2.813 2.813 0 0 0 0-5.625Z"/><path fill-rule="evenodd" d="M1.875 6.094A2.344 2.344 0 0 1 4.219 3.75H25.78a2.344 2.344 0 0 1 2.344 2.344V18.28a2.344 2.344 0 0 1-2.344 2.344H4.22a2.344 2.344 0 0 1-2.344-2.344V6.094Zm8.438 6.093a4.688 4.688 0 1 1 9.375 0 4.688 4.688 0 0 1-9.375 0Zm13.124-.937a.937.937 0 0 0-.937.938v.009c0 .518.42.937.938.937h.009c.518 0 .937-.42.937-.937v-.01a.938.938 0 0 0-.937-.937h-.01Zm-17.812.938c0-.518.42-.938.938-.938h.009c.518 0 .937.42.937.938v.009c0 .518-.42.937-.937.937h-.01a.938.938 0 0 1-.937-.937v-.01Z" clip-rule="evenodd"/><path d="M2.813 22.5a.937.937 0 1 0 0 1.875c6.75 0 13.287.903 19.5 2.594 1.487.405 3-.698 3-2.275v-1.256a.937.937 0 0 0-.938-.938H2.812Z"/></g></svg>