<svg xmlns="http://www.w3.org/2000/svg" width="30" height="30" fill="none"><g fill="#CAFF33"><path d="M14.063 5.666A12.134 12.134 0 0 0 7.5 3.75c-1.423 0-2.79.244-4.062.694a.938.938 0 0 0-.626.884V23.14a.937.937 0 0 0 1.25.884c1.074-.38 2.231-.587 3.438-.587 2.494 0 4.78.885 6.563 2.358V5.666ZM15.938 25.795a10.267 10.267 0 0 1 6.562-2.358c1.207 0 2.364.207 3.438.587a.938.938 0 0 0 1.25-.884V5.328a.938.938 0 0 0-.626-.884A12.169 12.169 0 0 0 22.5 3.75c-2.416 0-4.668.703-6.563 1.916v20.129Z"/></g></svg>