<svg xmlns="http://www.w3.org/2000/svg" width="23" height="28" fill="none"><g fill="#CAFF33" clip-path="url(#a)"><path d="M13.692 5.878c.033.039.039.05.044.05.545.077.798.484 1.09.89.335.462.736.886 1.165 1.27 1.127 1.018 1.82 2.25 2.05 3.75.402 2.63-1.104 5.33-3.579 6.38-3.755 1.594-7.951-.83-8.386-4.889-.23-2.161.561-3.948 2.211-5.356A6.642 6.642 0 0 0 9.634 6.39a.715.715 0 0 1 .303-.253c.187-.088.396-.138.632-.22a5.49 5.49 0 0 0-.193-.226c-.368-.38-.736-.77-1.11-1.138a.575.575 0 0 1-.187-.456c.01-.781.005-1.557.005-2.337 0-.314.385-.814.699-.875.357-.071.726-.11 1.083-.181a.496.496 0 0 0 .28-.17c.523-.705 1.441-.71 1.958-.012a.613.613 0 0 0 .324.193c.33.071.666.11 1.001.17.336.066.693.5.693.842 0 .786-.005 1.578.005 2.364a.616.616 0 0 1-.197.484c-.418.423-.82.858-1.238 1.303Zm-2.31 3.063c-.016.066-.032.104-.027.137.072.369-.099.528-.44.666-.648.27-.94.814-.923 1.512.016.693.39 1.122 1.017 1.347.275.1.56.17.836.264.253.083.506.165.748.264.203.083.319.242.296.473a.436.436 0 0 1-.379.412c-.214.044-.445.083-.649.033-.396-.093-.775-.252-1.193-.396-.187.248-.401.528-.66.875.39.17.726.346 1.083.467.204.066.286.154.259.363-.017.149-.006.303-.006.473h.842c.38 0 .396 0 .374-.39-.011-.242.044-.374.307-.407.138-.017.275-.094.402-.165.583-.32.825-.83.814-1.48-.011-.615-.32-1.039-.87-1.286-.246-.11-.51-.193-.774-.28-.33-.11-.66-.21-.99-.33-.204-.078-.286-.242-.27-.463.017-.208.143-.351.336-.384.23-.039.478-.06.704-.022.275.05.533.176.825.275.18-.28.368-.578.588-.924-.253-.116-.468-.259-.698-.297-.325-.055-.424-.204-.385-.512.01-.071-.088-.214-.149-.22-.33-.016-.676-.005-1.017-.005ZM11.68 27.989c-1.172 0-2.349-.033-3.52.01-.786.028-1.457-.208-2.09-.626-.896-.6-1.715-1.281-2.43-2.095-1.056-1.204-2.122-2.409-3.178-3.613-.863-.99-.473-2.452.759-2.854.143-.05.308-.066.456-.066.979-.005 1.963-.01 2.942.006a.64.64 0 0 1 .401.165c.671.649 1.331 1.314 1.985 1.98.132.131.253.159.44.131.396-.06.803-.115 1.205-.115 1.853-.011 3.7-.005 5.553-.005.633 0 1.1.324 1.265.863.253.814-.34 1.578-1.248 1.583-1.226.006-2.458 0-3.684 0-.22 0-.44-.005-.66 0-.396.011-.655.264-.66.622 0 .363.258.638.649.638 1.952.005 3.904.005 5.856 0 .396 0 .682-.22.957-.484a1186.44 1186.44 0 0 1 3.833-3.673c.522-.5 1.215-.523 1.71-.077.533.483.544 1.264.005 1.809-.566.577-1.144 1.121-1.715 1.677-1.265 1.226-2.53 2.447-3.79 3.673-.307.297-.648.45-1.082.45-1.32-.005-2.64 0-3.96 0ZM5.136 4.751l1.589 1.59c-.325.324-.665.664-1.006 1l-1.551-1.6c.302-.308.643-.66.968-.99ZM19.02 4.751c.325.324.66.67.974.984-.523.523-1.067 1.067-1.595 1.59-.319-.32-.654-.666-.99-1.001.523-.512 1.062-1.04 1.611-1.573ZM20.285 13.417c0-.467-.005-.896.006-1.325 0-.055.104-.154.159-.154.67-.011 1.336-.011 2.007 0 .055 0 .16.082.16.126.01.446.005.891.005 1.353h-2.337ZM3.855 13.434c-.76 0-1.469.005-2.183-.006-.055 0-.143-.104-.149-.165a16.17 16.17 0 0 1 0-1.155c0-.06.11-.17.17-.17.66-.011 1.32-.011 1.98 0 .06 0 .17.088.17.143.017.429.012.869.012 1.353Z"/></g><defs><clipPath id="a"><path fill="#fff" d="M0 0h22.628v28H0z"/></clipPath></defs></svg>