<svg xmlns="http://www.w3.org/2000/svg" width="30" height="30" fill="none"><g fill="#CAFF33"><path d="M13.08 10.933c.284-.226.62-.39.982-.492v3.493a2.815 2.815 0 0 1-.982-.492c-.493-.39-.683-.85-.683-1.255 0-.403.19-.863.682-1.254ZM15.938 19.577v-3.53c.434.107.83.285 1.151.527.533.4.724.857.724 1.238 0 .382-.19.84-.724 1.24-.322.24-.717.42-1.151.525Z"/><path fill-rule="evenodd" d="M15 2.813C8.269 2.813 2.812 8.268 2.812 15c0 6.731 5.457 12.188 12.188 12.188 6.731 0 12.188-5.457 12.188-12.188C27.188 8.269 21.73 2.812 15 2.812Zm.938 4.687a.937.937 0 1 0-1.876 0v1.02a4.796 4.796 0 0 0-2.149.945c-.89.707-1.391 1.687-1.391 2.723 0 1.035.5 2.015 1.391 2.722a4.791 4.791 0 0 0 2.15.945v3.722a3.168 3.168 0 0 1-1.152-.526l-1.098-.824a.938.938 0 0 0-1.126 1.5l1.1.824c.666.5 1.46.806 2.275.937V22.5a.937.937 0 1 0 1.876 0v-1.012c.815-.131 1.61-.437 2.276-.937.931-.698 1.474-1.68 1.474-2.738 0-1.059-.543-2.04-1.474-2.74-.666-.5-1.461-.805-2.276-.936v-3.696c.361.102.698.266.982.492l.519.412a.937.937 0 1 0 1.166-1.468l-.519-.412a4.795 4.795 0 0 0-2.148-.945V7.5Z" clip-rule="evenodd"/></g></svg>