<svg xmlns="http://www.w3.org/2000/svg" width="30" height="30" fill="none"><g fill="#CAFF33" fill-rule="evenodd" clip-rule="evenodd"><path d="M3.75 2.813a.937.937 0 1 0 0 1.874v20.625h-.938a.937.937 0 1 0 0 1.875H18.75v-22.5a.937.937 0 1 0 0-1.875h-15Zm4.688 21.562v-2.813c0-.517.42-.937.937-.937h3.75c.518 0 .938.42.938.938v2.812c0 .518-.42.938-.938.938h-3.75a.937.937 0 0 1-.938-.938ZM7.5 8.437c0-.517.42-.937.938-.937h.937a.937.937 0 1 1 0 1.875h-.938a.937.937 0 0 1-.937-.938Zm.938 2.813a.937.937 0 1 0 0 1.875h.937a.937.937 0 1 0 0-1.875h-.938ZM7.5 15.938c0-.518.42-.938.938-.938h.937a.937.937 0 1 1 0 1.875h-.938a.937.937 0 0 1-.937-.938ZM13.125 7.5a.937.937 0 1 0 0 1.875h.938a.937.937 0 1 0 0-1.875h-.938Zm-.938 4.688c0-.518.42-.938.938-.938h.938a.937.937 0 1 1 0 1.875h-.938a.937.937 0 0 1-.938-.938ZM13.126 15a.937.937 0 1 0 0 1.875h.938a.937.937 0 1 0 0-1.875h-.938ZM20.625 8.438v18.75h6.563a.937.937 0 1 0 0-1.875h-.938v-15a.937.937 0 1 0 0-1.876h-5.625Zm1.875 5.624c0-.517.42-.937.938-.937h.009c.518 0 .937.42.937.938v.009c0 .518-.42.937-.937.937h-.01a.938.938 0 0 1-.937-.937v-.01Zm.938 2.813a.937.937 0 0 0-.938.938v.009c0 .518.42.937.938.937h.009c.518 0 .937-.42.937-.937v-.01a.938.938 0 0 0-.937-.937h-.01Zm-.938 4.688c0-.518.42-.938.938-.938h.009c.518 0 .937.42.937.938v.009c0 .518-.42.937-.937.937h-.01a.938.938 0 0 1-.937-.937v-.01Z"/></g></svg>