<?xml version="1.0" standalone="no"?>
<!DOCTYPE svg PUBLIC "-//W3C//DTD SVG 20010904//EN"
 "http://www.w3.org/TR/2001/REC-SVG-20010904/DTD/svg10.dtd">
<svg version="1.0" xmlns="http://www.w3.org/2000/svg"
 width="700.000000pt" height="700.000000pt" viewBox="0 0 700.000000 700.000000"
 preserveAspectRatio="xMidYMid meet">
<metadata>
Created by potrace 1.14, written by Peter Selinger 2001-2017
</metadata>
<g transform="translate(0.000000,700.000000) scale(0.100000,-0.100000)"
fill="#000000" stroke="none">
<path d="M586 6411 c-2 -3 -3 -397 -2 -876 l1 -870 578 -577 c318 -318 580
-578 582 -578 3 0 5 392 5 870 l0 870 876 0 876 0 -1459 -1457 -1458 -1458 -1
-876 0 -876 876 1 876 1 583 583 582 582 582 -582 582 -583 872 -1 c789 -1
873 1 877 15 2 9 3 403 2 877 l-1 861 -582 582 -583 583 0 -876 0 -876 -870 0
c-478 0 -870 2 -870 4 0 3 392 397 871 876 l870 870 -858 859 c-472 472 -864
865 -872 874 -12 16 47 17 858 17 l871 0 0 -870 c0 -478 3 -870 6 -870 3 0
265 260 583 578 l577 578 0 875 -1 874 -875 1 -875 0 -577 -578 c-317 -318
-581 -578 -586 -578 -6 0 -270 260 -588 578 l-578 577 -873 1 c-481 0 -875 -2
-877 -5z m2478 -4223 l438 -438 -876 0 -876 0 0 876 0 876 438 -439 c241 -241
635 -635 876 -875z"/>
</g>
</svg>
