<svg version="1.0" xmlns="http://www.w3.org/2000/svg" width="933.333" height="933.333" viewBox="0 0 700 700"><path d="M58.6 58.9c-.2.3-.3 39.7-.2 87.6l.1 87 57.8 57.7c31.8 31.8 58 57.8 58.2 57.8.3 0 .5-39.2.5-87v-87h175.2L204.3 320.7 58.5 466.5l-.1 87.6v87.6l87.6-.1 87.6-.1 58.3-58.3 58.2-58.2 58.2 58.2 58.2 58.3 87.2.1c78.9.1 87.3-.1 87.7-1.5.2-.9.3-40.3.2-87.7l-.1-86.1-58.2-58.2-58.3-58.3V525h-87c-47.8 0-87-.2-87-.4 0-.3 39.2-39.7 87.1-87.6l87-87-85.8-85.9c-47.2-47.2-86.4-86.5-87.2-87.4-1.2-1.6 4.7-1.7 85.8-1.7H525v87c0 47.8.3 87 .6 87s26.5-26 58.3-57.8l57.7-57.8v-87.5l-.1-87.4-87.5-.1h-87.5l-57.7 57.8C377.1 148 350.7 174 350.2 174c-.6 0-27-26-58.8-57.8l-57.8-57.7-87.3-.1c-48.1 0-87.5.2-87.7.5zm247.8 422.3 43.8 43.8H175V349.8l43.8 43.9c24.1 24.1 63.5 63.5 87.6 87.5z"/></svg>