<svg width="34" height="34" fill="none" xmlns="http://www.w3.org/2000/svg"><g fill="#CAFF33"><path d="M8.5 4.25A4.25 4.25 0 0 0 4.25 8.5v3.188a4.25 4.25 0 0 0 4.25 4.25h3.188a4.25 4.25 0 0 0 4.25-4.25V8.5a4.25 4.25 0 0 0-4.25-4.25H8.5ZM22.313 4.25a4.25 4.25 0 0 0-4.25 4.25v3.188a4.25 4.25 0 0 0 4.25 4.25H25.5a4.25 4.25 0 0 0 4.25-4.25V8.5a4.25 4.25 0 0 0-4.25-4.25h-3.188ZM8.5 18.063a4.25 4.25 0 0 0-4.25 4.25V25.5a4.25 4.25 0 0 0 4.25 4.25h3.188a4.25 4.25 0 0 0 4.25-4.25v-3.188a4.25 4.25 0 0 0-4.25-4.25H8.5ZM24.969 19.125a1.063 1.063 0 0 0-2.125 0v3.719h-3.719a1.062 1.062 0 1 0 0 2.125h3.719v3.718a1.062 1.062 0 1 0 2.125 0V24.97h3.718a1.063 1.063 0 0 0 0-2.125H24.97v-3.719Z"/></g></svg>