<svg width="34" height="34" fill="none" xmlns="http://www.w3.org/2000/svg"><path fill-rule="evenodd" clip-rule="evenodd" d="M17 3.188C9.372 3.188 3.187 9.372 3.187 17c0 7.628 6.185 13.813 13.813 13.813 7.628 0 13.813-6.185 13.813-13.813 0-7.628-6.185-13.813-13.813-13.813Zm-4.25 7.437a1.063 1.063 0 0 0 0 2.125h2.125c1.388 0 2.569.887 3.006 2.125H12.75a1.063 1.063 0 0 0 0 2.125h5.131a3.189 3.189 0 0 1-3.006 2.125H12.75a1.063 1.063 0 0 0-.751 1.814l4.25 4.25a1.063 1.063 0 0 0 1.502-1.503l-2.453-2.453A5.316 5.316 0 0 0 20.082 17h1.169a1.063 1.063 0 0 0 0-2.125h-1.169a5.287 5.287 0 0 0-.956-2.125h2.125a1.063 1.063 0 0 0 0-2.125h-8.5Z" fill="#CAFF33"/></svg>