<svg width="34" height="34" fill="none" xmlns="http://www.w3.org/2000/svg"><g fill="#CAFF33"><path d="M16.496 2.252c.315-.17.693-.17 1.008 0L31.316 9.69a1.062 1.062 0 0 1 0 1.87l-13.812 7.438c-.315.17-.693.17-1.008 0L2.684 11.56a1.062 1.062 0 0 1 0-1.87l13.812-7.438Z"/><path d="m4.625 15.02 10.864 5.849a3.188 3.188 0 0 0 3.022 0l10.864-5.85 1.941 1.045a1.062 1.062 0 0 1 0 1.872l-13.812 7.437c-.315.17-.693.17-1.008 0L2.684 17.935a1.062 1.062 0 0 1 0-1.87l1.941-1.046Z"/><path d="m15.489 27.244-10.864-5.85-1.941 1.046a1.062 1.062 0 0 0 0 1.87l13.812 7.438c.315.17.693.17 1.008 0l13.812-7.438a1.062 1.062 0 0 0 0-1.87l-1.941-1.046-10.864 5.85a3.188 3.188 0 0 1-3.022 0Z"/></g></svg>