<svg xmlns="http://www.w3.org/2000/svg" width="36" height="36" fill="none"><path fill="#262626" d="M34.543 21.882c-2.316 9.29-11.725 14.943-21.016 12.627C4.24 32.193-1.413 22.783.903 13.494 3.218 4.204 12.627-1.451 21.916.865c9.29 2.316 14.943 11.727 12.627 21.017Z"/><path fill="#CAFF33" fill-rule="evenodd" d="M22.946 15.672c.234-1.565-.958-2.406-2.588-2.968l.529-2.12-1.291-.322-.515 2.065a53.328 53.328 0 0 0-1.034-.244l.519-2.078-1.29-.321-.53 2.12a43.21 43.21 0 0 1-.823-.194l.001-.007-1.78-.444-.343 1.378s.957.22.937.233c.523.13.618.476.601.75l-.602 2.416c.036.01.083.023.134.043l-.136-.033-.844 3.383c-.064.16-.226.398-.591.307.012.019-.939-.234-.939-.234l-.64 1.478 1.68.418.562.145.357.093-.534 2.145 1.29.322.529-2.122c.352.095.694.183 1.028.267l-.527 2.111 1.29.322.535-2.14c2.2.416 3.856.248 4.552-1.742.561-1.603-.028-2.527-1.186-3.13.844-.196 1.479-.75 1.648-1.897Zm-2.95 4.136c-.366 1.47-2.67.862-3.722.584a18.941 18.941 0 0 0-.25-.065l.708-2.842c.088.022.196.047.317.074 1.09.244 3.322.745 2.948 2.249Zm-2.728-3.568c.879.235 2.794.746 3.127-.59.341-1.368-1.52-1.78-2.43-1.981-.102-.023-.193-.043-.266-.061l-.643 2.577.212.055Z" clip-rule="evenodd"/></svg>