<svg xmlns="http://www.w3.org/2000/svg" width="35" height="36" fill="none"><g fill-rule="evenodd" clip-rule="evenodd"><path fill="#262626" d="M17.488 35.028c9.577 0 17.34-7.764 17.34-17.341 0-9.577-7.763-17.34-17.34-17.34S.147 8.11.147 17.686s7.764 17.34 17.34 17.34Z"/><path fill="#CAFF33" d="M15.968 9.684h2.854c-.056.644-.116 1.292-.168 1.936 1.11.08 2.192.438 3.165.966-.42 1.058-.844 2.115-1.267 3.172a4.544 4.544 0 0 0-2.973-1.067c-.27.006-.55.059-.774.213a.685.685 0 0 0-.287.434.615.615 0 0 0 .06.424c.087.14.241.224.395.276.315.113.655.12.984.154.774.095 1.551.228 2.283.505.567.217 1.11.542 1.498 1.019.368.437.582.99.662 1.558.095.654.067 1.334-.136 1.97a3.864 3.864 0 0 1-.778 1.39c-.724.841-1.789 1.345-2.881 1.475.035.69.077 1.376.115 2.066h-2.703c.035-.683.08-1.366.112-2.049a6.651 6.651 0 0 1-2.118-.44 9.455 9.455 0 0 1-1.86-.963c.428-1.1.855-2.2 1.286-3.302.487.41 1.005.791 1.572 1.082.61.311 1.285.51 1.971.518.326.003.662-.014.97-.126.19-.07.375-.193.459-.385.087-.203.08-.459-.053-.641a.897.897 0 0 0-.368-.266 2.61 2.61 0 0 0-.584-.15c-.735-.12-1.474-.218-2.185-.449-.57-.186-1.127-.445-1.583-.844a2.844 2.844 0 0 1-.693-.896c-.252-.511-.346-1.089-.34-1.656 0-.634.13-1.278.445-1.835.273-.497.69-.903 1.16-1.215.566-.374 1.2-.63 1.844-.837l-.084-2.037Z"/></g></svg>