<svg xmlns="http://www.w3.org/2000/svg" width="35" height="36" fill="none"><path fill="#262626" d="M34.587 17.688c0 9.526-7.722 17.249-17.249 17.249-9.526 0-17.25-7.723-17.25-17.25C.089 8.162 7.813.439 17.339.439c9.527 0 17.25 7.723 17.25 17.25Z"/><g fill="#CAFF33" opacity=".8"><path d="m17.283 9.684-.107.362v10.508l.107.106 4.878-2.883-4.878-8.093Z"/><path d="m17.283 9.684-4.878 8.093 4.878 2.883V9.684ZM17.283 22.247l-.06.073v3.744l.06.175 4.88-6.873-4.88 2.881Z"/><path d="M17.283 26.24v-3.993l-4.878-2.881 4.878 6.873ZM17.283 20.66l4.878-2.883-4.878-2.217v5.1ZM12.405 17.777l4.878 2.883v-5.1l-4.878 2.217Z"/></g></svg>