<svg width="35" height="36" viewBox="0 0 35 36" fill="none" xmlns="http://www.w3.org/2000/svg">
<g id="Icon">
<path id="Shape" d="M34.5874 17.6875C34.5874 27.2141 26.8647 34.9369 17.3382 34.9369C7.81162 34.9369 0.0888672 27.2141 0.0888672 17.6875C0.0888672 8.16098 7.81162 0.438232 17.3382 0.438232C26.8646 0.438232 34.5874 8.16098 34.5874 17.6875Z" fill="#262626"/>
<g id="Group" opacity="0.8">
<path id="Shape_2" d="M17.2828 9.68359L17.1763 10.0457V20.5539L17.2828 20.6603L22.1606 17.777L17.2828 9.68359Z" fill="#CAFF33"/>
<path id="Shape_3" d="M17.2831 9.68359L12.4053 17.777L17.2831 20.6603V15.56V9.68359Z" fill="#CAFF33"/>
<path id="Shape_4" d="M17.2832 22.2473L17.2231 22.3205V26.0637L17.2832 26.2391L22.1639 19.3655L17.2832 22.2473Z" fill="#CAFF33"/>
<path id="Shape_5" d="M17.2831 26.2391V22.2473L12.4053 19.3655L17.2831 26.2391Z" fill="#CAFF33"/>
<path id="Shape_6" d="M17.2832 20.6604L22.1609 17.7771L17.2832 15.5601V20.6604Z" fill="#CAFF33"/>
<path id="Shape_7" d="M12.4053 17.7771L17.283 20.6604V15.5601L12.4053 17.7771Z" fill="#CAFF33"/>
</g>
</g>
</svg>
