<svg xmlns="http://www.w3.org/2000/svg" width="36" height="36" fill="none"><path fill="#262626" d="M35.352 17.688c0 9.526-7.723 17.249-17.25 17.249-9.526 0-17.248-7.723-17.248-17.25C.854 8.162 8.576.439 18.103.439c9.526 0 17.249 7.723 17.249 17.25Z"/><path fill="#CAFF33" d="m22.95 24.895-.398-1.808a.347.347 0 0 0-.17-.238.34.34 0 0 0-.296-.023l-.057.023-.136.034-.21.05a6.995 6.995 0 0 1-1.404.165 4.579 4.579 0 0 1-4.297-2.888h4.399c.083.001.16-.027.227-.084a.344.344 0 0 0 .125-.21l.273-1.274a.37.37 0 0 0-.068-.307.355.355 0 0 0-.284-.136h-5.218a10.241 10.241 0 0 1 0-1.194h5.547c.205 0 .326-.098.364-.296l.273-1.295a.333.333 0 0 0-.08-.296.335.335 0 0 0-.284-.137h-5.32a4.49 4.49 0 0 1 1.705-2c.758-.486 1.615-.728 2.57-.728.03-.015.142-.011.335.011.193.023.303.033.33.029a1.9 1.9 0 0 1 .295.034l.256.04.199.04c.057.01.1.02.13.028l.046.011a.334.334 0 0 0 .432-.25l.49-1.807a.377.377 0 0 0-.035-.273.432.432 0 0 0-.227-.17 9.067 9.067 0 0 0-2.206-.262c-1.698 0-3.215.485-4.553 1.455-1.338.97-2.26 2.25-2.768 3.842H11.82a.354.354 0 0 0-.262.103.354.354 0 0 0-.102.261v1.296c0 .106.034.193.102.261a.354.354 0 0 0 .262.102h.761c-.022.364-.026.762-.011 1.194h-.75a.35.35 0 0 0-.256.108.35.35 0 0 0-.108.256v1.285a.35.35 0 0 0 .108.255.35.35 0 0 0 .256.108h1.08c.477 1.675 1.38 3.007 2.706 3.996 1.326.99 2.876 1.484 4.65 1.484a8.2 8.2 0 0 0 .852-.046 11.05 11.05 0 0 0 1.012-.164c.09-.02.172-.04.244-.063.072-.022.133-.04.182-.05a.565.565 0 0 0 .12-.04l.056-.012a.357.357 0 0 0 .193-.165.333.333 0 0 0 .034-.255Z"/></svg>