<svg xmlns="http://www.w3.org/2000/svg" width="33" height="28" fill="none"><path fill="#CAFF33" d="M14.545 18.181c-.954 0-1.513-.537-1.513-1.501v-1.116A41.554 41.554 0 0 1 .88 12.877v-2.273c5.1 2.26 10.215 3.058 15.78 3.058 5.577 0 10.691-.799 15.792-3.058v2.273A41.555 41.555 0 0 1 20.3 15.564v1.116c0 .964-.56 1.501-1.514 1.501h-4.242Zm-9.45 9.162h23.143c2.823 0 4.214-1.377 4.214-4.202V9.736c0-2.825-1.391-4.202-4.214-4.202H5.094C2.285 5.534.88 6.912.88 9.736V23.14c0 2.825 1.405 4.202 4.214 4.202Zm4.65-20.61h2.114v-2.44c0-1.046.614-1.639 1.677-1.639h6.26c1.064 0 1.664.593 1.664 1.64v2.41h2.114V4.446c0-2.59-1.35-3.802-3.819-3.802h-6.191c-2.333 0-3.82 1.212-3.82 3.802v2.287Z"/></svg>