<svg xmlns="http://www.w3.org/2000/svg" width="35" height="34" fill="none"><g fill="#CAFF33"><path d="M17.334 10.625a3.188 3.188 0 1 0 0 6.375 3.188 3.188 0 0 0 0-6.375Z"/><path fill-rule="evenodd" d="M2.458 6.906A2.656 2.656 0 0 1 5.115 4.25h24.437a2.656 2.656 0 0 1 2.657 2.656V20.72a2.656 2.656 0 0 1-2.657 2.656H5.115a2.656 2.656 0 0 1-2.657-2.656V6.906Zm9.563 6.907a5.313 5.313 0 1 1 10.625 0 5.313 5.313 0 0 1-10.625 0Zm14.875-1.063c-.587 0-1.063.476-1.063 1.063v.01c0 .587.476 1.063 1.063 1.063h.01c.587 0 1.063-.476 1.063-1.063v-.01c0-.587-.476-1.063-1.062-1.063h-.011ZM6.708 13.813c0-.587.476-1.063 1.063-1.063h.01c.587 0 1.063.476 1.063 1.063v.01c0 .587-.476 1.063-1.062 1.063H7.77a1.062 1.062 0 0 1-1.063-1.063v-.01Z" clip-rule="evenodd"/><path d="M3.521 25.5a1.062 1.062 0 1 0 0 2.125c7.65 0 15.06 1.023 22.1 2.94 1.686.458 3.4-.791 3.4-2.579v-1.424c0-.586-.476-1.062-1.063-1.062H3.521Z"/></g></svg>