<svg xmlns="http://www.w3.org/2000/svg" width="34" height="34" fill="none"><g fill="#CAFF33"><path d="M4.781 4.25a2.656 2.656 0 0 0-2.656 2.656V7.97a2.656 2.656 0 0 0 2.656 2.656H29.22a2.656 2.656 0 0 0 2.656-2.656V6.906a2.656 2.656 0 0 0-2.656-2.656H4.78Z"/><path fill-rule="evenodd" d="m4.373 12.75.765 13a4.25 4.25 0 0 0 4.242 4h15.24a4.25 4.25 0 0 0 4.242-4l.765-13H4.373ZM17 14.875c.587 0 1.063.476 1.063 1.063v6.997l2.436-2.436A1.063 1.063 0 0 1 22 22l-4.25 4.25a1.063 1.063 0 0 1-1.502 0l-4.25-4.25A1.063 1.063 0 0 1 13.5 20.5l2.437 2.436v-6.997c0-.587.475-1.063 1.062-1.063Z" clip-rule="evenodd"/></g></svg>