<svg width="24" height="19" fill="none" xmlns="http://www.w3.org/2000/svg"><path d="M10.502 12.452c-.673 0-1.068-.38-1.068-1.06v-.788A29.335 29.335 0 0 1 .856 8.707V7.103c3.6 1.595 7.21 2.159 11.139 2.159 3.937 0 7.547-.564 11.147-2.16v1.605a29.336 29.336 0 0 1-8.577 1.897v.788c0 .68-.395 1.06-1.069 1.06h-2.994Zm-6.67 6.467h16.335c1.993 0 2.975-.973 2.975-2.966V6.49c0-1.994-.982-2.966-2.974-2.966H3.83c-1.983 0-2.975.972-2.975 2.966v9.463c0 1.993.992 2.966 2.975 2.966Zm3.282-14.55h1.492V2.65c0-.74.433-1.158 1.184-1.158h4.419c.75 0 1.174.418 1.174 1.158V4.35h1.492V2.756C16.875.927 15.922.07 14.18.07H9.81c-1.647 0-2.696.856-2.696 2.685V4.37Z" fill="#B3B3B3"/></svg>