<svg width="34" height="34" fill="none" xmlns="http://www.w3.org/2000/svg"><g fill="#CAFF33"><path fill-rule="evenodd" clip-rule="evenodd" d="M2.125 13.93v2.539a2.656 2.656 0 0 0 2.656 2.656H29.22a2.656 2.656 0 0 0 2.656-2.656v-2.54a4.25 4.25 0 0 0-1.023-2.766l-4.654-5.429a4.25 4.25 0 0 0-3.227-1.484H11.028a4.25 4.25 0 0 0-3.226 1.484l-4.654 5.43a4.25 4.25 0 0 0-1.023 2.765Zm8.903-7.555c-.62 0-1.21.271-1.613.742l-3.917 4.57h4.484a4.25 4.25 0 0 1 3.536 1.893l.232.349a2.125 2.125 0 0 0 1.768.946h2.964c.71 0 1.374-.355 1.768-.946l.232-.349a4.25 4.25 0 0 1 3.536-1.893h4.484l-3.917-4.57a2.125 2.125 0 0 0-1.614-.742H11.028Z"/><path d="M3.984 21.25a1.86 1.86 0 0 0-1.859 1.86v2.39a4.25 4.25 0 0 0 4.25 4.25h21.25a4.25 4.25 0 0 0 4.25-4.25v-2.39a1.86 1.86 0 0 0-1.86-1.86h-5.997a4.25 4.25 0 0 0-3.536 1.892l-.232.35a2.125 2.125 0 0 1-1.768.945h-2.964c-.71 0-1.374-.355-1.768-.946l-.232-.349a4.25 4.25 0 0 0-3.536-1.892H3.984Z"/></g></svg>