<svg width="34" height="34" fill="none" xmlns="http://www.w3.org/2000/svg"><g fill="#CAFF33"><path d="M17 1.063c-6.455 0-11.688 5.232-11.688 11.687 0 4.322 2.347 8.095 5.83 10.116.971.563 1.58 1.428 1.607 2.298.015.48.35.89.818 1 .497.118 1.005.21 1.52.276a.763.763 0 0 0 .85-.77v-6.603a9.51 9.51 0 0 1-1.327-.243 1.062 1.062 0 1 1 .53-2.058A7.453 7.453 0 0 0 17 17c.644 0 1.267-.081 1.86-.234a1.062 1.062 0 1 1 .53 2.058 9.51 9.51 0 0 1-1.327.243v6.603c0 .462.392.83.85.77a14.794 14.794 0 0 0 1.52-.276c.468-.11.803-.52.818-1 .027-.87.636-1.735 1.607-2.298a11.683 11.683 0 0 0 5.83-10.116c0-6.455-5.233-11.688-11.688-11.688Z"/><path fill-rule="evenodd" clip-rule="evenodd" d="M12.769 28.191c.109-.576.665-.955 1.242-.846.967.184 1.966.28 2.989.28s2.022-.096 2.99-.28a1.063 1.063 0 0 1 .396 2.088A18.15 18.15 0 0 1 17 29.75c-1.156 0-2.288-.109-3.386-.317a1.063 1.063 0 0 1-.845-1.242ZM13.818 31.654a1.062 1.062 0 0 1 1.168-.946 19.364 19.364 0 0 0 4.029 0 1.062 1.062 0 1 1 .22 2.113 21.478 21.478 0 0 1-4.47 0 1.062 1.062 0 0 1-.947-1.167Z"/></g></svg>