<svg width="34" height="34" fill="none" xmlns="http://www.w3.org/2000/svg"><path fill-rule="evenodd" clip-rule="evenodd" d="M3.188 3.188a1.063 1.063 0 0 0 0 2.124H4.25v14.875a4.25 4.25 0 0 0 4.25 4.25h1.713l-1.658 4.977a1.063 1.063 0 0 0 2.015.672l.467-1.398h11.926l.466 1.398a1.063 1.063 0 0 0 2.017-.672l-1.66-4.977H25.5a4.25 4.25 0 0 0 4.25-4.25V5.313h1.063a1.063 1.063 0 0 0 0-2.125H3.188Zm8.557 23.375.708-2.125h9.094l.708 2.125h-10.51Zm10.568-17a1.063 1.063 0 0 0-2.125 0v8.5a1.063 1.063 0 0 0 2.125 0v-8.5Zm-4.25 3.187a1.063 1.063 0 0 0-2.125 0v5.313a1.063 1.063 0 0 0 2.124 0V12.75Zm-4.25 3.188a1.063 1.063 0 0 0-2.126 0v2.124a1.063 1.063 0 0 0 2.126 0v-2.125Z" fill="#CAFF33"/></svg>