<svg width="34" height="34" fill="none" xmlns="http://www.w3.org/2000/svg"><g fill="#CAFF33"><path fill-rule="evenodd" clip-rule="evenodd" d="M10.625 7.438a4.25 4.25 0 0 1 4.25-4.25h4.25a4.25 4.25 0 0 1 4.25 4.25v.29c1.321.12 2.631.279 3.93.473 2.06.308 3.508 2.1 3.508 4.132v4.297c0 1.716-1.04 3.333-2.744 3.899A35.028 35.028 0 0 1 17 22.313c-3.866 0-7.588-.627-11.07-1.784-1.703-.566-2.742-2.183-2.742-3.899v-4.297c0-2.031 1.447-3.824 3.507-4.132a69.158 69.158 0 0 1 3.93-.473v-.29Zm10.625 0v.128a70.11 70.11 0 0 0-8.5 0v-.128c0-1.174.951-2.125 2.125-2.125h4.25c1.174 0 2.125.95 2.125 2.125ZM17 19.124A1.063 1.063 0 1 0 17 17a1.063 1.063 0 0 0 0 2.125Z"/><path d="M4.25 26.067v-3.961c.316.173.653.32 1.01.44A37.153 37.153 0 0 0 17 24.438c4.097 0 8.045-.664 11.74-1.892a6.1 6.1 0 0 0 1.01-.44v3.96c0 2.058-1.484 3.865-3.574 4.142a69.696 69.696 0 0 1-9.176.605c-3.11 0-6.173-.206-9.176-.605-2.09-.277-3.574-2.084-3.574-4.141Z"/></g></svg>