<svg width="112" height="19" fill="none" xmlns="http://www.w3.org/2000/svg"><g fill="#fff"><path d="M15.354.333 9.208 11.184v7.148H6.312v-7.148L.167.334h3.3l4.306 7.97 4.281-7.97h3.3ZM20.508 18.667c-1.846 0-3.416-.652-4.71-1.955-1.292-1.302-1.938-2.905-1.938-4.808s.646-3.505 1.939-4.808c1.293-1.303 2.863-1.954 4.71-1.954 1.863 0 3.433.651 4.709 1.954 1.293 1.303 1.94 2.905 1.94 4.808s-.647 3.506-1.94 4.808c-1.276 1.303-2.846 1.955-4.71 1.955Zm-2.795-3.857c.755.771 1.687 1.157 2.795 1.157 1.108 0 2.04-.386 2.796-1.157.756-.772 1.133-1.74 1.133-2.906 0-1.166-.378-2.134-1.133-2.905-.756-.772-1.688-1.158-2.796-1.158-1.108 0-2.04.386-2.795 1.158-.756.77-1.134 1.74-1.134 2.905 0 1.166.378 2.134 1.134 2.906ZM38.104 5.476h2.72v12.856h-2.72v-1.645c-.822 1.32-2.124 1.98-3.904 1.98-1.444 0-2.61-.472-3.5-1.415-.89-.942-1.335-2.237-1.335-3.882V5.476h2.72v7.61c0 .96.252 1.698.755 2.212.504.514 1.193.772 2.066.772.957 0 1.729-.3 2.317-.9.587-.617.881-1.552.881-2.803V5.476ZM46.725 7.636c.688-1.594 1.981-2.392 3.878-2.392v3.009c-1.04-.069-1.947.188-2.72.771-.772.566-1.158 1.509-1.158 2.829v6.48h-2.72V5.475h2.72v2.16ZM63.166 8.999a4.605 4.605 0 0 1 1.813 1.697c.436.72.655 1.55.655 2.494 0 1.474-.512 2.7-1.537 3.677-1.024.977-2.275 1.465-3.752 1.465h-7.556V.333h7.002c1.444 0 2.661.48 3.652 1.44 1.007.943 1.51 2.126 1.51 3.549 0 1.56-.595 2.785-1.787 3.677ZM59.79 3.11h-4.105v4.731h4.105c.638 0 1.175-.222 1.612-.668.436-.463.654-1.029.654-1.697 0-.669-.218-1.226-.654-1.671a2.128 2.128 0 0 0-1.612-.695Zm.554 12.445c.672 0 1.234-.24 1.687-.72.47-.497.706-1.097.706-1.8 0-.702-.236-1.294-.706-1.774a2.191 2.191 0 0 0-1.687-.745h-4.66v5.04h4.66ZM78.081 5.476h2.72v12.856h-2.72v-1.851c-1.024 1.457-2.493 2.186-4.407 2.186-1.73 0-3.207-.652-4.433-1.955-1.225-1.32-1.838-2.922-1.838-4.808 0-1.903.612-3.505 1.838-4.808s2.703-1.954 4.433-1.954c1.914 0 3.383.72 4.407 2.16V5.475Zm-6.825 9.385c.755.771 1.704 1.157 2.846 1.157 1.142 0 2.09-.386 2.846-1.157.755-.789 1.133-1.774 1.133-2.957 0-1.183-.378-2.16-1.133-2.931-.756-.789-1.704-1.183-2.846-1.183-1.142 0-2.09.394-2.846 1.183-.756.771-1.133 1.748-1.133 2.931s.377 2.168 1.133 2.957ZM90.595 5.142c1.444 0 2.611.471 3.501 1.414.89.943 1.335 2.237 1.335 3.882v7.894h-2.72v-7.61c0-.96-.252-1.698-.756-2.212-.504-.514-1.192-.771-2.065-.771-.957 0-1.73.308-2.317.925-.588.6-.881 1.526-.881 2.777v6.891h-2.72V5.476h2.72V7.12c.822-1.32 2.124-1.98 3.903-1.98ZM111.834 18.332h-3.451l-6.951-8.562v8.562h-2.896V.333h2.896v8.074l6.699-8.074h3.451l-7.128 8.768 7.38 9.231Z"/></g></svg>